<svg xmlns="http://www.w3.org/2000/svg" viewBox="0 0 64 64" id="rupee">
  <g>
    <circle cx="31.93" cy="31.93" r="29" fill="#fdbf00"></circle>
    <circle cx="32" cy="32" r="21" fill="#ffda2d"></circle>
    <circle cx="46.483" cy="16.793" r="2.172" fill="#fff"></circle>
    <circle cx="16.793" cy="47.207" r="2.172" fill="#fff"></circle>
    <path d="M41 29a1 1 0 0 1-1 1h-2.7a7 7 0 0 1-6.92 6H27l4.8 6.4a1 1 0 0 1-1.6 1.2l-5.91-7.89A1.013 1.013 0 0 1 25 34h5.38a5.009 5.009 0 0 0 4.9-4H25a1 1 0 0 1 0-2h10.28a5.009 5.009 0 0 0-4.9-4H25a1 1 0 0 1 0-2h15a1 1 0 0 1 0 2h-4.74a6.922 6.922 0 0 1 2.04 4H40a1 1 0 0 1 1 1Z"></path>
    <path d="M32 2a30 30 0 1 0 30 30A30.034 30.034 0 0 0 32 2Zm0 58a28 28 0 1 1 28-28 28.032 28.032 0 0 1-28 28Z"></path>
    <path d="M49.229 18.351a3.127 3.127 0 0 0 .426-1.558 3.172 3.172 0 1 0-3.173 3.172 3.138 3.138 0 0 0 1.264-.266 19.994 19.994 0 0 1-25.055 30.008 1 1 0 1 0-.931 1.769 21.986 21.986 0 0 0 27.469-33.125zm-3.918-1.558a1.172 1.172 0 1 1 1.171 1.172 1.172 1.172 0 0 1-1.171-1.172zM16.793 44.035a3.157 3.157 0 0 0-.692.081A19.779 19.779 0 0 1 12 32a20.023 20.023 0 0 1 20-20 19.811 19.811 0 0 1 8.463 1.874 1 1 0 0 0 .848-1.812A21.989 21.989 0 0 0 14.39 45.16a3.141 3.141 0 0 0-.769 2.047 3.173 3.173 0 1 0 3.172-3.172zm0 4.344a1.172 1.172 0 1 1 1.173-1.172 1.172 1.172 0 0 1-1.173 1.172z"></path>
  </g>
</svg>
